<svg width="48" height="48" viewBox="0 0 48 48" xmlns="http://www.w3.org/2000/svg"><g fill="none" fill-rule="evenodd"><path d="M24 47.5c12.979 0 23.5-10.521 23.5-23.5S36.979.5 24 .5.5 11.021.5 24 11.021 47.5 24 47.5Z" stroke="#EEE"/><path d="M14 24.5a.5.5 0 0 1 .5-.5h3a.501.501 0 0 1 0 1h-3a.498.498 0 0 1-.5-.5m5 0a.5.5 0 0 1 .5-.5h3a.501.501 0 0 1 0 1h-3a.498.498 0 0 1-.5-.5m5 0c0-.276.226-.5.5-.5h3a.501.501 0 0 1 0 1h-3a.498.498 0 0 1-.5-.5m6 0c0-.276.226-.5.5-.5h3a.501.501 0 0 1 0 1h-3a.498.498 0 0 1-.5-.5" fill="#FFF"/><path opacity=".3" d="M12 12h24v24H12z"/><g transform="translate(12 16)"><path d="M1.584 0h20.832C23.291 0 24 .71 24 1.584v12.832c0 .875-.71 1.584-1.584 1.584H1.584C.709 16 0 15.29 0 14.416V1.584C0 .709.71 0 1.584 0Z" fill="#5697FA"/><path fill="#0864EE" d="M0 3h24v3H0z"/><path fill="#FFF" d="M2 7h20v3H2z"/><rect fill="#0864EE" x="2" y="13" width="10" height="1" rx=".5"/><rect fill="#0864EE" x="2" y="11" width="15" height="1" rx=".5"/></g></g></svg>