<svg xmlns="http://www.w3.org/2000/svg" width="48" height="48"><g fill="none" fill-rule="evenodd"><path stroke="#EEE" d="M24 .5c6.49 0 12.364 2.63 16.617 6.883S47.5 17.511 47.5 24c0 6.49-2.63 12.364-6.883 16.617S30.489 47.5 24 47.5c-6.49 0-12.364-2.63-16.617-6.883S.5 30.489.5 24c0-6.49 2.63-12.364 6.883-16.617S17.511.5 24 .5z"/><path d="M14 24.5a.5.5 0 0 1 .5-.5h3c.277 0 .5.222.5.5 0 .276-.226.5-.5.5h-3a.498.498 0 0 1-.5-.5m5 0a.5.5 0 0 1 .5-.5h3a.499.499 0 1 1 0 1h-3a.498.498 0 0 1-.5-.5m5 0c0-.276.226-.5.5-.5h3a.499.499 0 1 1 0 1h-3a.498.498 0 0 1-.5-.5m6 0c0-.276.226-.5.5-.5h3c.277 0 .5.222.5.5 0 .276-.226.5-.5.5h-3a.498.498 0 0 1-.5-.5" fill="#FFF"/><g transform="translate(14 14)"><path fill="#5697FA" d="M10.797 0a4.4 4.4 0 1 0 .005 8.799A4.4 4.4 0 0 0 10.797 0"/><path fill="#FFF" d="M10.724 6.533v.529c0 .078-.07.138-.153.138h-.253c-.083 0-.147-.06-.147-.138v-.523C9.188 6.437 8.8 5.746 8.8 5.26c0-.078.064-.138.146-.138h.381c.083 0 .133.066.14.126.019.199.146.733.965.733.552 0 .889-.168.889-.63 0-.962-2.406-.349-2.406-1.93 0-.666.457-1.057 1.256-1.123v-.583c0-.06.051-.114.121-.114h.311c.064 0 .12.054.12.114v.59c.858.095 1.188.642 1.188 1.105 0 .078-.07.138-.152.138h-.381c-.083 0-.133-.042-.152-.126-.045-.289-.204-.565-.794-.565-.502 0-.838.114-.838.565C9.594 4.4 12 3.775 12 5.35c0 .775-.603 1.111-1.276 1.183M4.416 18.69c0 .07-.057.127-.128.127H.512a.127.127 0 0 1-.128-.128v-7.778c0-.072.057-.128.128-.128h3.776c.071 0 .128.056.128.128v7.778zm-.128-8.29H.512a.51.51 0 0 0-.512.51v7.78c0 .076.015.152.051.219a.505.505 0 0 0 .461.291h3.776a.51.51 0 0 0 .512-.51v-7.78a.51.51 0 0 0-.512-.51z"/><path fill="#5697FA" d="M4.8 11.174h8.4c.493 0 1.177.33 1.177 1.206 0 .876-.663 1.268-1.206 1.268h-3.106c-.24 0-.422.113-.422.352s.153.375.381.375h3.832a1009.4 1009.4 0 0 0 4.227-3.665c.734-.644 1.374-.102 1.494 0 .121.103.815.764.114 1.689-.7.925-3.156 3.995-3.531 4.448-.375.453-.832.753-2.198.753H5.158L4.8 11.174z"/><rect width="5.6" height="9.6" y="9.6" fill="#0763EE" rx="1.68"/></g></g></svg>